<svg width="12" height="12" viewBox="0 0 12 12" fill="none" xmlns="http://www.w3.org/2000/svg">
<path fill-rule="evenodd" clip-rule="evenodd" d="M1.29289 1.29289C1.68342 0.902369 2.31658 0.902369 2.70711 1.29289L6 4.58579L9.29289 1.29289C9.68342 0.902369 10.3166 0.902369 10.7071 1.29289C11.0976 1.68342 11.0976 2.31658 10.7071 2.70711L7.41421 6L10.7071 9.29289C11.0976 9.68342 11.0976 10.3166 10.7071 10.7071C10.3166 11.0976 9.68342 11.0976 9.29289 10.7071L6 7.41421L2.70711 10.7071C2.31658 11.0976 1.68342 11.0976 1.29289 10.7071C0.902369 10.3166 0.902369 9.68342 1.29289 9.29289L4.58579 6L1.29289 2.70711C0.902369 2.31658 0.902369 1.68342 1.29289 1.29289Z" fill="#AAAAC5"/>
</svg>
