<?xml version="1.0" encoding="UTF-8"?>
<!DOCTYPE svg PUBLIC "-//W3C//DTD SVG 1.1//EN" "http://www.w3.org/Graphics/SVG/1.1/DTD/svg11.dtd">
<!-- Creator: CorelDRAW 2019 (64-Bit) -->
<svg xmlns="http://www.w3.org/2000/svg" xml:space="preserve" width="12.7mm" height="12.7mm" version="1.1" style="shape-rendering:geometricPrecision; text-rendering:geometricPrecision; image-rendering:optimizeQuality; fill-rule:evenodd; clip-rule:evenodd"
viewBox="0 0 1270 1270"
 xmlns:xlink="http://www.w3.org/1999/xlink">
 <defs>
  <style type="text/css">
   <![CDATA[
    .fil0 {fill:whitesmoke}
    .fil1 {fill:whitesmoke;fill-rule:nonzero}
   ]]>
  </style>
 </defs>
 <g id="Слой_x0020_1">
  <metadata id="CorelCorpID_0Corel-Layer"/>
  <g>
   <path class="fil0" d="M-0 0l1270 0 0 1270 -1270 0 0 -1270zm1185.33 84.67l-1100.66 0 0 1100.66 1100.66 0 0 -1100.66z"/>
  </g>
  <path class="fil1" d="M674.89 1100.67c121.62,0 217.44,-42.38 294.84,-92.13l-53.44 -99.51c-66.34,42.38 -138.21,70.02 -222.98,70.02 -171.37,0 -287.46,-121.62 -298.52,-311.42l604.42 0c3.69,-22.12 5.53,-55.29 5.53,-86.61 0,-256.14 -128.99,-420.15 -357.49,-420.15 -204.55,0 -401.72,178.75 -401.72,471.74 0,293 189.8,468.06 429.36,468.06zm-281.94 -541.77c18.42,-176.9 132.67,-278.25 257.98,-278.25 140.05,0 221.13,97.66 221.13,278.25l-479.11 0z"/>
 </g>
</svg>
