<svg width="12" height="12" viewBox="0 0 12 12" fill="none" xmlns="http://www.w3.org/2000/svg">
<path fill-rule="evenodd" clip-rule="evenodd" d="M4.42054 7.84111C6.30964 7.84111 7.84107 6.30968 7.84107 4.42055C7.84107 2.53143 6.30964 1 4.42054 1C2.53143 1 1 2.53143 1 4.42055C1 6.30968 2.53143 7.84111 4.42054 7.84111ZM7.87996 7.17284C8.48155 6.41767 8.84107 5.4611 8.84107 4.42055C8.84107 1.97915 6.86193 0 4.42054 0C1.97914 0 0 1.97915 0 4.42055C0 6.86196 1.97914 8.84111 4.42054 8.84111C5.4611 8.84111 6.41769 8.48157 7.17286 7.87995L11.1398 11.8469C11.3351 12.0422 11.6517 12.0422 11.8469 11.8469C12.0422 11.6517 12.0422 11.3351 11.8469 11.1398L7.87996 7.17284ZM3.91473 1.55764C4.49668 1.44189 5.09988 1.5013 5.64806 1.72836C6.19623 1.95542 6.66477 2.33994 6.99441 2.83329C7.32406 3.32664 7.50001 3.90666 7.50001 4.5C7.50001 4.77614 7.27615 5 7.00001 5C6.72386 5 6.50001 4.77614 6.50001 4.5C6.50001 4.10444 6.38271 3.71776 6.16294 3.38886C5.94318 3.05996 5.63083 2.80362 5.26537 2.65224C4.89992 2.50087 4.49779 2.46126 4.10983 2.53843C3.72186 2.6156 3.3655 2.80608 3.08579 3.08579C2.89053 3.28105 2.57395 3.28105 2.37869 3.08579C2.18342 2.89052 2.18342 2.57394 2.37869 2.37868C2.79824 1.95912 3.33279 1.6734 3.91473 1.55764Z" fill="#AAAAC5"/>
</svg>
