<?xml version="1.0" encoding="utf-8"?>
<!-- Generator: Adobe Illustrator 22.1.0, SVG Export Plug-In . SVG Version: 6.00 Build 0)  -->
<svg version="1.1" xmlns="http://www.w3.org/2000/svg" xmlns:xlink="http://www.w3.org/1999/xlink" x="0px" y="0px"
	 viewBox="0 0 29.6 29.6" style="enable-background:new 0 0 29.6 29.6;" xml:space="preserve">
<style type="text/css">
	.st0{fill:#939598;stroke:#000000;stroke-width:0.25;stroke-miterlimit:10;}
	.st1{fill:#D1D3D4;stroke:#000000;stroke-width:0.25;stroke-miterlimit:10;}
	.st2{fill:none;stroke:#000000;stroke-width:0.25;stroke-miterlimit:10;}
</style>
<g id="Слой_1">
	<g>
		<path class="st0" d="M4.8,5.3h-4c-0.3,0-0.5-0.2-0.5-0.5v-4c0-0.3,0.2-0.5,0.5-0.5h4c0.3,0,0.5,0.2,0.5,0.5v4
			C5.3,5.1,5.1,5.3,4.8,5.3z"/>
		<path class="st0" d="M28.8,5.3h-4c-0.3,0-0.5-0.2-0.5-0.5v-4c0-0.3,0.2-0.5,0.5-0.5h4c0.3,0,0.5,0.2,0.5,0.5v4
			C29.3,5.1,29.1,5.3,28.8,5.3z"/>
		<path class="st1" d="M16.8,5.3h-4c-0.3,0-0.5-0.2-0.5-0.5v-4c0-0.3,0.2-0.5,0.5-0.5h4c0.3,0,0.5,0.2,0.5,0.5v4
			C17.3,5.1,17.1,5.3,16.8,5.3z"/>
		<path class="st0" d="M4.8,29.3h-4c-0.3,0-0.5-0.2-0.5-0.5v-4c0-0.3,0.2-0.5,0.5-0.5h4c0.3,0,0.5,0.2,0.5,0.5v4
			C5.3,29.1,5.1,29.3,4.8,29.3z"/>
		<path class="st1" d="M4.8,17.3h-4c-0.3,0-0.5-0.2-0.5-0.5v-4c0-0.3,0.2-0.5,0.5-0.5h4c0.3,0,0.5,0.2,0.5,0.5v4
			C5.3,17.1,5.1,17.3,4.8,17.3z"/>
		<path class="st0" d="M28.8,29.3h-4c-0.3,0-0.5-0.2-0.5-0.5v-4c0-0.3,0.2-0.5,0.5-0.5h4c0.3,0,0.5,0.2,0.5,0.5v4
			C29.3,29.1,29.1,29.3,28.8,29.3z"/>
		<path class="st1" d="M28.8,17.3h-4c-0.3,0-0.5-0.2-0.5-0.5v-4c0-0.3,0.2-0.5,0.5-0.5h4c0.3,0,0.5,0.2,0.5,0.5v4
			C29.3,17.1,29.1,17.3,28.8,17.3z"/>
		<path class="st1" d="M16.8,29.3h-4c-0.3,0-0.5-0.2-0.5-0.5v-4c0-0.3,0.2-0.5,0.5-0.5h4c0.3,0,0.5,0.2,0.5,0.5v4
			C17.3,29.1,17.1,29.3,16.8,29.3z"/>
	</g>
</g>
<g id="Слой_2">
	<line class="st2" x1="5.3" y1="26.8" x2="12.3" y2="26.8"/>
	<line class="st2" x1="17.3" y1="26.8" x2="24.3" y2="26.8"/>
	<line class="st2" x1="26.8" y1="24.2" x2="26.8" y2="17.3"/>
	<line class="st2" x1="26.8" y1="12.3" x2="26.8" y2="5.3"/>
	<line class="st2" x1="24.3" y1="2.8" x2="17.4" y2="2.8"/>
	<line class="st2" x1="12.3" y1="2.8" x2="5.3" y2="2.8"/>
	<line class="st2" x1="2.8" y1="5.4" x2="2.8" y2="12.3"/>
	<line class="st2" x1="2.8" y1="17.3" x2="2.8" y2="24.3"/>
</g>
</svg>
