<?xml version="1.0" encoding="utf-8"?>
<!-- Generator: Adobe Illustrator 22.1.0, SVG Export Plug-In . SVG Version: 6.00 Build 0)  -->
<svg version="1.1" id="Capa_1" xmlns="http://www.w3.org/2000/svg" xmlns:xlink="http://www.w3.org/1999/xlink" x="0px" y="0px"
	 viewBox="0 0 39.8 21.4" style="enable-background:new 0 0 39.8 21.4;" xml:space="preserve">
<style type="text/css">
	.st0{fill:#254D93;}
</style>
<g>
	<g>
		<path class="st0" d="M19.1,0h-10L4.9,3.6v14h14.2V0L19.1,0z M10.7,1.3h6.9v15.1H6.4V4.9h4.3C10.7,4.9,10.7,1.3,10.7,1.3z"/>
		<g>
			<polygon class="st0" points="4.9,5.2 2.4,7.3 2.4,21.3 16.6,21.3 16.6,17.6 15.1,17.6 15.1,20.1 3.9,20.1 3.9,8.7 4.9,8.7 			"/>
			<path class="st0" d="M16.7,21.4H2.3V7.3L5,5v3.7H4V20H15v-2.5h1.6V21.4z M2.5,21.3h14.1v-3.6h-1.3v2.5H3.8V8.6h1V5.4l-2.3,2V21.3
				z"/>
		</g>
	</g>
</g>
</svg>
