<svg width="64" height="64" viewBox="0 0 64 64" fill="none" xmlns="http://www.w3.org/2000/svg">
<path fill-rule="evenodd" clip-rule="evenodd" d="M10.9252 47.6384L51.282 47.6402C55.3844 47.5958 60.2718 44.1471 60.6788 38.1117C60.9041 34.0963 58.6433 30.0244 55.3095 28.6732C52.2367 27.3904 49.4207 27.6876 46.5831 28.5545C46.535 26.1276 46.0715 24.0251 44.8187 22.784C43.3782 21.1406 40.1395 20.8813 38.6735 21.461C37.4979 21.8845 36.4374 22.5503 35.4691 23.6736C33.9582 21.0552 32.1611 18.8393 29.9421 17.2138C26.4479 14.9869 22.5749 14.4068 18.2102 15.6247C15.0314 16.578 12.9146 18.8414 11.8171 22.4545C11.3017 24.9761 11.4518 27.327 12.2509 29.5727C10.1411 29.4253 8.25625 29.8435 6.6369 30.9642C4.60728 32.5201 3.42199 34.6029 3.07017 37.2395C2.78442 40.077 3.35298 42.605 5.11594 44.6796C6.58785 46.0243 8.28591 47.617 10.9252 47.6384V47.6384Z" fill="#222033" stroke="#F5F5F5" stroke-width="2.48658" stroke-miterlimit="22.9256"/>
<path fill-rule="evenodd" clip-rule="evenodd" d="M20.2933 19.2683C19.2534 19.5215 18.2135 19.7743 17.3612 20.5285C16.5087 21.2827 15.8435 22.5378 15.5907 23.8867C15.3378 25.2359 15.497 26.6784 15.9257 27.7377C16.3548 28.797 17.0532 29.4731 17.7518 30.1488" fill="#222033"/>
<path d="M20.2933 19.2683C19.2534 19.5215 18.2135 19.7743 17.3612 20.5285C16.5087 21.2827 15.8435 22.5378 15.5907 23.8867C15.3378 25.2359 15.497 26.6784 15.9257 27.7377C16.3548 28.797 17.0532 29.4731 17.7518 30.1488" stroke="#F5F5F5" stroke-width="1.24314" stroke-miterlimit="22.9256" stroke-linecap="round"/>
</svg>
