<svg width="64" height="64" viewBox="0 0 64 64" fill="none" xmlns="http://www.w3.org/2000/svg">
<rect x="3.5" y="21.5" width="57" height="21" rx="4.5" fill="#222033" stroke="white" stroke-width="3"/>
<path d="M29 34.5H23C22.7239 34.5 22.5 34.2761 22.5 34V31.4142C22.5 31.2816 22.5527 31.1544 22.6464 31.0607L24.0607 29.6464C24.1544 29.5527 24.2816 29.5 24.4142 29.5H27.5858C27.7184 29.5 27.8456 29.5527 27.9393 29.6464L29.3536 31.0607C29.4473 31.1544 29.5 31.2816 29.5 31.4142V34C29.5 34.2761 29.2761 34.5 29 34.5Z" fill="white" stroke="white" stroke-linejoin="round"/>
<path d="M18 34.5H12C11.7239 34.5 11.5 34.2761 11.5 34V31.4142C11.5 31.2816 11.5527 31.1544 11.6464 31.0607L13.0607 29.6464C13.1544 29.5527 13.2816 29.5 13.4142 29.5H16.5858C16.7184 29.5 16.8456 29.5527 16.9393 29.6464L18.3536 31.0607C18.4473 31.1544 18.5 31.2816 18.5 31.4142V34C18.5 34.2761 18.2761 34.5 18 34.5Z" fill="white" stroke="white" stroke-linejoin="round"/>
<path d="M41 34.5H35C34.7239 34.5 34.5 34.2761 34.5 34V31.4142C34.5 31.2816 34.5527 31.1544 34.6464 31.0607L36.0607 29.6464C36.1544 29.5527 36.2816 29.5 36.4142 29.5H39.5858C39.7184 29.5 39.8456 29.5527 39.9393 29.6464L41.3536 31.0607C41.4473 31.1544 41.5 31.2816 41.5 31.4142V34C41.5 34.2761 41.2761 34.5 41 34.5Z" fill="white" stroke="white" stroke-linejoin="round"/>
<path d="M52 34.5H46C45.7239 34.5 45.5 34.2761 45.5 34V31.4142C45.5 31.2816 45.5527 31.1544 45.6464 31.0607L47.0607 29.6464C47.1544 29.5527 47.2816 29.5 47.4142 29.5H50.5858C50.7184 29.5 50.8456 29.5527 50.9393 29.6464L52.3536 31.0607C52.4473 31.1544 52.5 31.2816 52.5 31.4142V34C52.5 34.2761 52.2761 34.5 52 34.5Z" fill="white" stroke="white" stroke-linejoin="round"/>
<circle cx="55" cy="27" r="2" fill="white"/>
</svg>
