<?xml version="1.0" encoding="utf-8"?>
<!-- Generator: Adobe Illustrator 22.1.0, SVG Export Plug-In . SVG Version: 6.00 Build 0)  -->
<svg version="1.1" id="Слой_1" xmlns="http://www.w3.org/2000/svg" xmlns:xlink="http://www.w3.org/1999/xlink" x="0px" y="0px"
	 width="305px" height="175px" viewBox="0 0 305 175" style="enable-background:new 0 0 305 175;" xml:space="preserve">
<style type="text/css">
	.st0{fill:#DFE4EA;stroke:#7F8C8D;stroke-miterlimit:10;}
	.st1{fill:#EDF0F1;stroke:#7F8C8D;stroke-miterlimit:10;}
	.st2{fill:#EDCC69;stroke:#2C3E50;stroke-miterlimit:10;}
	.st3{fill:#F2F2F5;stroke:#2C3E50;stroke-miterlimit:10;}
	.st4{fill:none;stroke:#2C3E50;stroke-miterlimit:10;}
	.st5{font-family:'MyriadPro-Regular';}
	.st6{font-size:17px;}
	.st7{fill:#FFFFFF;stroke:#747D8C;stroke-miterlimit:10;}
	.st8{fill:#4C86C6;stroke:#747D8C;stroke-miterlimit:10;}
	.st9{fill:none;stroke:#747D8C;stroke-miterlimit:10;}
	.st10{fill:#8ECC95;stroke:#747D8C;stroke-miterlimit:10;}
	.st11{fill:#F2F2F5;stroke:#747D8C;stroke-miterlimit:10;}
	.st12{fill:#7B9AD0;stroke:#747D8C;stroke-miterlimit:10;}
	.st13{fill:none;stroke:#747D8C;stroke-miterlimit:10;stroke-dasharray:3.4006,1.1335;}
	.st14{fill:none;stroke:#747D8C;stroke-miterlimit:10;stroke-dasharray:3,1;}
</style>
<g>
	<path class="st0" d="M279.6,172.5H4.5c-1.1,0-2-0.9-2-2V4.5c0-1.1,0.9-2,2-2h277.1v168C281.6,171.6,280.7,172.5,279.6,172.5z"/>
	<ellipse class="st1" cx="281.6" cy="23.8" rx="20.9" ry="21.3"/>
	<g>
		<g>
			<rect x="272.2" y="10.3" class="st2" width="10.6" height="5.4"/>
		</g>
		<g>
			<rect x="281.6" y="21.1" class="st3" width="8" height="5.4"/>
		</g>
		<g>
			<rect x="279" y="21.1" class="st2" width="2.7" height="5.4"/>
		</g>
		<g>
			<rect x="281.6" y="31.8" class="st3" width="8" height="5.4"/>
		</g>
		<g>
			<rect x="279" y="31.8" class="st2" width="2.7" height="5.4"/>
		</g>
		<line class="st4" x1="275.2" y1="15.7" x2="275.2" y2="34.5"/>
		<line class="st4" x1="279" y1="34.5" x2="274.9" y2="34.5"/>
		<line class="st4" x1="279" y1="23.8" x2="275.2" y2="23.8"/>
		<line class="st4" x1="275.2" y1="15.7" x2="275.2" y2="10.3"/>
	</g>
	<text transform="matrix(0.985 0 0 1 50.2358 31.1704)" class="st5 st6">Communication modeling</text>
	<g>
		<rect x="70.6" y="58.9" class="st7" width="40" height="46.9"/>
		<rect x="70.6" y="59.1" class="st8" width="40" height="3.9"/>
		<line class="st9" x1="70.6" y1="91" x2="110.6" y2="91"/>
		<line class="st9" x1="70.6" y1="76.6" x2="110.6" y2="76.6"/>
		<rect x="131.5" y="58.9" class="st7" width="40" height="46.9"/>
		<rect x="131.5" y="59.1" class="st10" width="40" height="3.9"/>
		<line class="st9" x1="131.5" y1="91" x2="171.5" y2="91"/>
		<line class="st9" x1="131.5" y1="76.6" x2="171.5" y2="76.6"/>
		<rect x="70.7" y="120" class="st11" width="27.9" height="24.8"/>
		<rect x="70.7" y="120" class="st12" width="27.9" height="2.7"/>
		<polyline class="st9" points="70.6,133.1 95.4,133.1 98.5,133.1 		"/>
		<rect x="107" y="120" class="st11" width="27.9" height="24.8"/>
		<rect x="107" y="120" class="st12" width="27.9" height="2.7"/>
		<line class="st9" x1="106.9" y1="133.1" x2="134.8" y2="133.1"/>
		<rect x="143.6" y="120" class="st11" width="27.9" height="24.8"/>
		<rect x="143.6" y="120" class="st12" width="27.9" height="2.7"/>
		<line class="st9" x1="143.6" y1="133.1" x2="171.5" y2="133.1"/>
		<rect x="185.6" y="58.6" class="st11" width="27.9" height="24.8"/>
		<rect x="185.6" y="58.6" class="st10" width="27.9" height="2.7"/>
		<line class="st9" x1="185.5" y1="72.4" x2="213.4" y2="72.4"/>
		
			<rect x="185.6" y="90.5" transform="matrix(-1 -1.224647e-16 1.224647e-16 -1 382.3353 186.5808)" class="st10" width="11.2" height="5.7"/>
		
			<rect x="202.3" y="90.5" transform="matrix(-1 -1.224647e-16 1.224647e-16 -1 415.8236 186.5808)" class="st10" width="11.2" height="5.7"/>
		<line class="st9" x1="110.6" y1="83.4" x2="131.5" y2="83.4"/>
		<line class="st9" x1="84.6" y1="120" x2="84.6" y2="105.8"/>
		<g>
			<g>
				<line class="st9" x1="98.5" y1="133.1" x2="100" y2="133.1"/>
				<line class="st13" x1="101.1" y1="133.1" x2="105.1" y2="133.1"/>
				<line class="st9" x1="105.7" y1="133.1" x2="107.2" y2="133.1"/>
			</g>
		</g>
		<line class="st14" x1="135.3" y1="133.1" x2="143.6" y2="133.1"/>
		<line class="st14" x1="157.5" y1="120" x2="157.5" y2="105.8"/>
		<line class="st9" x1="171.5" y1="67" x2="185.5" y2="67"/>
		<line class="st9" x1="191.2" y1="90.5" x2="191.2" y2="83.4"/>
		<line class="st14" x1="196.7" y1="93.3" x2="202.3" y2="93.3"/>
	</g>
</g>
</svg>
