<?xml version="1.0" encoding="utf-8"?>
<!-- Generator: Adobe Illustrator 22.1.0, SVG Export Plug-In . SVG Version: 6.00 Build 0)  -->
<svg version="1.1" id="Слой_1" xmlns="http://www.w3.org/2000/svg" xmlns:xlink="http://www.w3.org/1999/xlink" x="0px" y="0px"
	 width="305px" height="175px" viewBox="0 0 305 175" style="enable-background:new 0 0 305 175;" xml:space="preserve">
<style type="text/css">
	.st0{fill:#DFE4EA;stroke:#7F8C8D;stroke-miterlimit:10;}
	.st1{fill:#EDF0F1;stroke:#7F8C8D;stroke-miterlimit:10;}
	.st2{fill:#EDCC69;stroke:#2C3E50;stroke-miterlimit:10;}
	.st3{fill:#F2F2F5;stroke:#2C3E50;stroke-miterlimit:10;}
	.st4{fill:none;stroke:#2C3E50;stroke-miterlimit:10;}
	.st5{font-family:'MyriadPro-Regular';}
	.st6{font-size:17px;}
	.st7{fill:#EDCC69;stroke:#747D8C;stroke-miterlimit:10;}
	.st8{fill:#F9A242;stroke:#747D8C;stroke-miterlimit:10;}
	.st9{fill:#FFFFFF;stroke:#747D8C;stroke-miterlimit:10;}
	.st10{fill:#4C86C6;stroke:#747D8C;stroke-miterlimit:10;}
	.st11{fill:#8ECC95;stroke:#747D8C;stroke-miterlimit:10;}
	.st12{fill:none;stroke:#747D8C;stroke-miterlimit:10;}
	.st13{fill:none;stroke:#747D8C;stroke-miterlimit:10;stroke-dasharray:3,1;}
</style>
<g>
	<path class="st0" d="M279.6,172.5H4.5c-1.1,0-2-0.9-2-2V4.5c0-1.1,0.9-2,2-2h277.1v168C281.6,171.6,280.7,172.5,279.6,172.5z"/>
	<ellipse class="st1" cx="281.6" cy="23.8" rx="20.9" ry="21.3"/>
	<g>
		<g>
			<rect x="272.2" y="10.3" class="st2" width="10.6" height="5.4"/>
		</g>
		<g>
			<rect x="281.6" y="21.1" class="st3" width="8" height="5.4"/>
		</g>
		<g>
			<rect x="279" y="21.1" class="st2" width="2.7" height="5.4"/>
		</g>
		<g>
			<rect x="281.6" y="31.8" class="st3" width="8" height="5.4"/>
		</g>
		<g>
			<rect x="279" y="31.8" class="st2" width="2.7" height="5.4"/>
		</g>
		<line class="st4" x1="275.2" y1="15.7" x2="275.2" y2="34.5"/>
		<line class="st4" x1="279" y1="34.5" x2="274.9" y2="34.5"/>
		<line class="st4" x1="279" y1="23.8" x2="275.2" y2="23.8"/>
		<line class="st4" x1="275.2" y1="15.7" x2="275.2" y2="10.3"/>
	</g>
	<text transform="matrix(0.985 0 0 1 64.5771 31.1699)" class="st5 st6">Component modeling</text>
	<g>
		<path class="st7" d="M225.4,85.5h-42.5c-1.1,0-2-0.9-2-2V54.8h46.5v28.7C227.4,84.6,226.5,85.5,225.4,85.5z"/>
		<rect x="204.2" y="50.1" class="st8" width="23.3" height="4.7"/>
	</g>
	<g>
		<path class="st7" d="M224.4,130.8h-42.5c-1.1,0-2-0.9-2-2v-28.7h46.5v28.7C226.4,129.9,225.5,130.8,224.4,130.8z"/>
		<rect x="203.1" y="95.4" class="st8" width="23.3" height="4.7"/>
	</g>
	<g>
		<rect x="185.3" y="106" class="st9" width="11.2" height="7.4"/>
		<rect x="185.3" y="106" class="st10" width="11.2" height="1.3"/>
	</g>
	<g>
		<rect x="185.3" y="117.5" class="st9" width="11.2" height="7.4"/>
		<rect x="185.3" y="117.5" class="st11" width="11.2" height="1.3"/>
	</g>
	<g>
		
			<rect x="185.3" y="60.5" transform="matrix(-1 -1.224647e-16 1.224647e-16 -1 382.5375 134.9964)" class="st9" width="12" height="14"/>
		
			<rect x="185.3" y="60.5" transform="matrix(-1 -1.224647e-16 1.224647e-16 -1 382.5375 122.2468)" class="st11" width="12" height="1.2"/>
		<line class="st12" x1="197.3" y1="70.1" x2="185.3" y2="70.1"/>
		<line class="st12" x1="197.3" y1="65.8" x2="185.3" y2="65.8"/>
	</g>
	<g>
		<path class="st8" d="M105.3,66.4V75H63v53.4c0,1.4,1.1,2.6,2.5,2.6h79.7c1.4,0,2.5-1.2,2.5-2.6V75v-8.6H105.3z"/>
		<path class="st7" d="M145.2,130.8H65.5c-1.4,0-2.5-1-2.5-2.3l-12.7-48H135l12.7,48C147.7,129.8,146.6,130.8,145.2,130.8z"/>
	</g>
	<line class="st13" x1="147.7" y1="110.2" x2="179.9" y2="110.2"/>
	<line class="st13" x1="147.7" y1="75" x2="180.9" y2="75"/>
</g>
</svg>
