<?xml version="1.0" encoding="utf-8"?>
<!-- Generator: Adobe Illustrator 22.1.0, SVG Export Plug-In . SVG Version: 6.00 Build 0)  -->
<svg version="1.1" id="Слой_1" xmlns="http://www.w3.org/2000/svg" xmlns:xlink="http://www.w3.org/1999/xlink" x="0px" y="0px"
	 width="305px" height="175px" viewBox="0 0 305 175" style="enable-background:new 0 0 305 175;" xml:space="preserve">
<style type="text/css">
	.st0{fill:#DFE4EA;stroke:#7F8C8D;stroke-miterlimit:10;}
	.st1{fill:#EDF0F1;stroke:#7F8C8D;stroke-miterlimit:10;}
	.st2{fill:#EDCC69;stroke:#2C3E50;stroke-miterlimit:10;}
	.st3{fill:#F2F2F5;stroke:#2C3E50;stroke-miterlimit:10;}
	.st4{fill:none;stroke:#2C3E50;stroke-miterlimit:10;}
	.st5{font-family:'MyriadPro-Regular';}
	.st6{font-size:17px;}
	.st7{fill:#FFFFFF;stroke:#747D8C;stroke-miterlimit:10;}
	.st8{fill:#4C86C6;stroke:#747D8C;stroke-miterlimit:10;}
	.st9{fill:none;stroke:#747D8C;stroke-miterlimit:10;}
	.st10{fill:#F2F2F5;stroke:#747D8C;stroke-miterlimit:10;}
	.st11{fill:#7B9AD0;stroke:#747D8C;stroke-miterlimit:10;}
</style>
<g>
	<path class="st0" d="M279.6,172.5H4.5c-1.1,0-2-0.9-2-2V4.5c0-1.1,0.9-2,2-2h277.1v168C281.6,171.6,280.7,172.5,279.6,172.5z"/>
	<ellipse class="st1" cx="281.6" cy="23.8" rx="20.9" ry="21.3"/>
	<g>
		<g>
			<rect x="273.1" y="9.6" class="st2" width="10.6" height="5.4"/>
		</g>
		<g>
			<rect x="282.6" y="20.4" class="st3" width="8" height="5.4"/>
		</g>
		<g>
			<rect x="279.9" y="20.4" class="st2" width="2.7" height="5.4"/>
		</g>
		<g>
			<rect x="282.6" y="31.2" class="st3" width="8" height="5.4"/>
		</g>
		<g>
			<rect x="279.9" y="31.2" class="st2" width="2.7" height="5.4"/>
		</g>
		<line class="st4" x1="276.1" y1="15" x2="276.1" y2="33.9"/>
		<line class="st4" x1="279.9" y1="33.9" x2="275.8" y2="33.9"/>
		<line class="st4" x1="279.9" y1="23.1" x2="276.1" y2="23.1"/>
		<line class="st4" x1="276.1" y1="15" x2="276.1" y2="9.6"/>
	</g>
	<text transform="matrix(0.985 0 0 1 64.5186 31.1699)" class="st5 st6">SubSystems modeling</text>
	<g>
		<rect x="77.5" y="62" class="st7" width="58.7" height="68.8"/>
		<rect x="77.5" y="62.4" class="st8" width="58.7" height="5.7"/>
		<line class="st9" x1="77.5" y1="109.2" x2="136.2" y2="109.2"/>
		<line class="st9" x1="77.5" y1="88.1" x2="136.2" y2="88.1"/>
		<rect x="165.6" y="55.2" class="st10" width="40.9" height="36.4"/>
		<rect x="165.6" y="55.2" class="st11" width="40.9" height="3.9"/>
		<polyline class="st9" points="165.5,74.4 202,74.4 206.4,74.4 		"/>
		<rect x="165.6" y="100.1" class="st10" width="40.9" height="36.4"/>
		<rect x="165.6" y="100.1" class="st11" width="40.9" height="3.9"/>
		<line class="st9" x1="165.5" y1="120.4" x2="206.4" y2="120.4"/>
		<line class="st9" x1="136.2" y1="98.7" x2="146.4" y2="98.7"/>
		<line class="st9" x1="146.4" y1="82" x2="146.4" y2="110.9"/>
		<line class="st9" x1="146.4" y1="110.4" x2="165.5" y2="110.4"/>
		<line class="st9" x1="146.4" y1="82.5" x2="165.5" y2="82.5"/>
	</g>
</g>
</svg>
