<?xml version="1.0" encoding="utf-8"?>
<!-- Generator: Adobe Illustrator 22.1.0, SVG Export Plug-In . SVG Version: 6.00 Build 0)  -->
<svg version="1.1" id="Слой_1" xmlns="http://www.w3.org/2000/svg" xmlns:xlink="http://www.w3.org/1999/xlink" x="0px" y="0px"
	 width="305px" height="175px" viewBox="0 0 305 175" style="enable-background:new 0 0 305 175;" xml:space="preserve">
<style type="text/css">
	.st0{fill:#DFE4EA;stroke:#7F8C8D;stroke-miterlimit:10;}
	.st1{fill:#EDF0F1;stroke:#7F8C8D;stroke-miterlimit:10;}
	.st2{fill:#EDCC69;stroke:#2C3E50;stroke-miterlimit:10;}
	.st3{fill:#F2F2F5;stroke:#2C3E50;stroke-miterlimit:10;}
	.st4{fill:none;stroke:#2C3E50;stroke-miterlimit:10;}
	.st5{font-family:'MyriadPro-Regular';}
	.st6{font-size:17px;}
	.st7{fill:#FFFFFF;stroke:#747D8C;stroke-miterlimit:10;}
	.st8{fill:#7B9AD0;stroke:#747D8C;stroke-miterlimit:10;}
	.st9{fill:#4C86C6;stroke:#747D8C;stroke-miterlimit:10;}
	.st10{fill:#8ECC95;stroke:#747D8C;stroke-miterlimit:10;}
	.st11{fill:none;stroke:#747D8C;stroke-miterlimit:10;}
	.st12{fill:#DFE4EA;stroke:#747D8C;stroke-miterlimit:10;}
</style>
<g>
	<path class="st0" d="M279.6,172.5H4.5c-1.1,0-2-0.9-2-2V4.5c0-1.1,0.9-2,2-2h277.1v168C281.6,171.6,280.7,172.5,279.6,172.5z"/>
	<ellipse class="st1" cx="281.6" cy="23.8" rx="20.9" ry="21.3"/>
	<g>
		<g>
			<rect x="273.1" y="9.6" class="st2" width="10.6" height="5.4"/>
		</g>
		<g>
			<rect x="282.6" y="20.4" class="st3" width="8" height="5.4"/>
		</g>
		<g>
			<rect x="279.9" y="20.4" class="st2" width="2.7" height="5.4"/>
		</g>
		<g>
			<rect x="282.6" y="31.2" class="st3" width="8" height="5.4"/>
		</g>
		<g>
			<rect x="279.9" y="31.2" class="st2" width="2.7" height="5.4"/>
		</g>
		<line class="st4" x1="276.1" y1="15" x2="276.1" y2="33.9"/>
		<line class="st4" x1="279.9" y1="33.9" x2="275.8" y2="33.9"/>
		<line class="st4" x1="279.9" y1="23.1" x2="276.1" y2="23.1"/>
		<line class="st4" x1="276.1" y1="15" x2="276.1" y2="9.6"/>
	</g>
	<text transform="matrix(0.985 0 0 1 80.2021 31.1689)" class="st5 st6">Systems modeling</text>
	<g>
		<rect x="131" y="47.9" class="st7" width="32" height="21.1"/>
		<rect x="131" y="47.9" class="st8" width="32" height="3.9"/>
		<rect x="131" y="84.2" class="st7" width="32" height="21.1"/>
		<rect x="131" y="84.2" class="st9" width="32" height="3.9"/>
		<rect x="179" y="70.1" class="st7" width="40" height="46.9"/>
		<rect x="179" y="70.3" class="st9" width="40" height="3.9"/>
		<rect x="131" y="120.6" class="st7" width="32" height="21.1"/>
		<rect x="131" y="120.6" class="st10" width="32" height="3.9"/>
		<line class="st11" x1="163.5" y1="94.8" x2="179" y2="94.8"/>
		<line class="st11" x1="115.5" y1="133.1" x2="131" y2="133.1"/>
		<line class="st11" x1="147" y1="105.4" x2="147" y2="120.6"/>
		<line class="st11" x1="147" y1="83.6" x2="147" y2="69"/>
		<ellipse class="st12" cx="179" cy="94.8" rx="2" ry="2"/>
		<ellipse class="st12" cx="179" cy="81" rx="2" ry="2"/>
		<ellipse class="st12" cx="179" cy="109.7" rx="2" ry="2"/>
		<line class="st11" x1="179" y1="102.2" x2="219" y2="102.2"/>
		<line class="st11" x1="179" y1="87.8" x2="219" y2="87.8"/>
		
			<rect x="74.9" y="108.4" transform="matrix(-1 -1.224647e-16 1.224647e-16 -1 189.9031 263.7263)" class="st7" width="40" height="46.9"/>
		
			<rect x="74.9" y="108.6" transform="matrix(-1 -1.224647e-16 1.224647e-16 -1 189.9031 221.0845)" class="st10" width="40" height="3.9"/>
		<ellipse class="st12" cx="115" cy="133.1" rx="2" ry="2"/>
		<ellipse class="st12" cx="115" cy="119.3" rx="2" ry="2"/>
		<ellipse class="st12" cx="115" cy="148" rx="2" ry="2"/>
		<line class="st11" x1="115" y1="140.6" x2="74.9" y2="140.6"/>
		<line class="st11" x1="115" y1="126.2" x2="74.9" y2="126.2"/>
	</g>
</g>
</svg>
