<svg width="12" height="12" viewBox="0 0 12 12" fill="none" xmlns="http://www.w3.org/2000/svg">
<path fill-rule="evenodd" clip-rule="evenodd" d="M10 5V4.93233C10.0002 3.87893 10.0005 2.64143 9.50803 1.67466C9.24524 1.15878 8.84442 0.718643 8.25204 0.414108C7.6683 0.114006 6.92719 0 6 0C5.07281 0 4.3317 0.114006 3.74796 0.414108C3.15558 0.718643 2.75476 1.15878 2.49197 1.67466C1.99948 2.64143 1.99976 3.87893 2 4.93233V5C1.44772 5 1 5.44772 1 6V11C1 11.5523 1.44772 12 2 12H10C10.5523 12 11 11.5523 11 11V6C11 5.44772 10.5523 5 10 5ZM3 5C3 3.8586 3.01111 2.85869 3.38303 2.12857C3.55774 1.78562 3.81317 1.50498 4.20517 1.30347C4.6058 1.0975 5.17719 1 6 1C6.82281 1 7.3942 1.0975 7.79483 1.30347C8.18683 1.50498 8.44226 1.78562 8.61697 2.12857C8.98889 2.85869 9 3.8586 9 5H3ZM6.5 8.86622C6.79889 8.69331 7 8.37014 7 8C7 7.44772 6.55228 7 6 7C5.44772 7 5 7.44772 5 8C5 8.37014 5.20111 8.69331 5.5 8.86622V11H6.5V8.86622Z" fill="white"/>
</svg>
