<svg width="64" height="64" viewBox="0 0 64 64" fill="none" xmlns="http://www.w3.org/2000/svg">
<g clip-path="url(#clip0)">
<path d="M-71 67.5L0.5 -4" stroke="white"/>
<path d="M-68.5 67.5L3 -4" stroke="white" stroke-width="0.5"/>
<path d="M64 67.5L135.5 -4" stroke="white"/>
<path d="M-3.5 67.5L68 -4" stroke="#AAAAC5" stroke-width="0.5"/>
<path d="M0.5 67.5L72 -4" stroke="#AAAAC5" stroke-width="0.5"/>
<path d="M4.5 67.5L76 -4" stroke="#AAAAC5" stroke-width="0.5"/>
<path d="M8.5 67.5L80 -4" stroke="#AAAAC5" stroke-width="0.5"/>
<path d="M12.5 67.5L84 -4" stroke="#AAAAC5" stroke-width="0.5"/>
<path d="M16.5 67.5L88 -4" stroke="#AAAAC5" stroke-width="0.5"/>
<path d="M20.5 67.5L92 -4" stroke="#AAAAC5" stroke-width="0.5"/>
<path d="M24.5 67.5L96 -4" stroke="#AAAAC5" stroke-width="0.5"/>
<path d="M28.5 67.5L100 -4" stroke="#AAAAC5" stroke-width="0.5"/>
<path d="M32.5 67.5L104 -4" stroke="#AAAAC5" stroke-width="0.5"/>
<path d="M36.5 67.5L108 -4" stroke="#AAAAC5" stroke-width="0.5"/>
<path d="M40.5 67.5L112 -4" stroke="#AAAAC5" stroke-width="0.5"/>
<path d="M44.5 67.5L116 -4" stroke="#AAAAC5" stroke-width="0.5"/>
<path d="M48.5 67.5L120 -4" stroke="#AAAAC5" stroke-width="0.5"/>
<path d="M52.5 67.5L124 -4" stroke="#AAAAC5" stroke-width="0.5"/>
<path d="M54.5 69.5L126 -2" stroke="#AAAAC5" stroke-width="0.5"/>
<path d="M58.5 69.5L130 -2" stroke="#AAAAC5" stroke-width="0.5"/>
<path d="M-7.5 67.5L64 -4" stroke="#AAAAC5" stroke-width="0.5"/>
<path d="M-11.5 67.5L60 -4" stroke="#AAAAC5" stroke-width="0.5"/>
<path d="M-15.5 67.5L56 -4" stroke="#AAAAC5" stroke-width="0.5"/>
<path d="M-19.5 67.5L52 -4" stroke="#AAAAC5" stroke-width="0.5"/>
<path d="M-23.5 67.5L48 -4" stroke="#AAAAC5" stroke-width="0.5"/>
<path d="M-27.5 67.5L44 -4" stroke="#AAAAC5" stroke-width="0.5"/>
<path d="M-31.5 67.5L40 -4" stroke="#AAAAC5" stroke-width="0.5"/>
<path d="M-35.5 67.5L36 -4" stroke="#AAAAC5" stroke-width="0.5"/>
<path d="M-39.5 67.5L32 -4" stroke="#AAAAC5" stroke-width="0.5"/>
<path d="M-43.5 67.5L28 -4" stroke="#AAAAC5" stroke-width="0.5"/>
<path d="M-47.5 67.5L24 -4" stroke="#AAAAC5" stroke-width="0.5"/>
<path d="M-51.5 67.5L20 -4" stroke="#AAAAC5" stroke-width="0.5"/>
<path d="M-55.5 67.5L16 -4" stroke="#AAAAC5" stroke-width="0.5"/>
<path d="M-59.5 67.5L12 -4" stroke="#AAAAC5" stroke-width="0.5"/>
<path d="M-63.5 67.5L8 -4" stroke="#AAAAC5" stroke-width="0.5"/>
<path d="M-67.5 67.5L4 -4" stroke="#AAAAC5"/>
</g>
<defs>
<clipPath id="clip0">
<rect width="64" height="64" fill="white"/>
</clipPath>
</defs>
</svg>
