<?xml version="1.0" encoding="UTF-8"?>
<!DOCTYPE svg PUBLIC "-//W3C//DTD SVG 1.1//EN" "http://www.w3.org/Graphics/SVG/1.1/DTD/svg11.dtd">
<!-- Creator: CorelDRAW 2019 (64-Bit) -->
<svg xmlns="http://www.w3.org/2000/svg" xml:space="preserve" width="21.6746mm" height="21.6746mm" version="1.1" style="shape-rendering:geometricPrecision; text-rendering:geometricPrecision; image-rendering:optimizeQuality; fill-rule:evenodd; clip-rule:evenodd"
viewBox="0 0 2167.46 2167.46"
 xmlns:xlink="http://www.w3.org/1999/xlink">
 <defs>
  <style type="text/css">
   <![CDATA[
    .str0 {stroke:black;stroke-width:84.67;stroke-miterlimit:22.9256}
    .str1 {stroke:black;stroke-width:42.33;stroke-linecap:round;stroke-miterlimit:22.9256}
    .fil0 {fill:none}
   ]]>
  </style>
 </defs>
 <g id="Слой_x0020_1">
  <metadata id="CorelCorpID_0Corel-Layer"/>
  <path class="fil0 str0" d="M380.81 1623.1l1374.18 0.06c139.69,-1.51 306.11,-118.94 319.97,-324.45 7.67,-136.73 -69.31,-275.38 -182.83,-321.39 -104.63,-43.68 -200.52,-33.56 -297.14,-4.04 -1.64,-82.64 -17.42,-154.23 -60.08,-196.49 -49.05,-55.96 -159.33,-64.79 -209.25,-45.05 -40.03,14.42 -76.14,37.09 -109.11,75.34 -51.45,-89.16 -112.64,-164.61 -188.2,-219.96 -118.98,-75.83 -250.86,-95.58 -399.48,-54.11 -108.24,32.46 -180.32,109.53 -217.69,232.56 -17.55,85.86 -12.44,165.91 14.77,242.38 -71.84,-5.02 -136.02,9.22 -191.16,47.38 -69.11,52.98 -109.47,123.9 -121.45,213.68 -9.73,96.62 9.63,182.7 69.66,253.34 50.12,45.79 107.94,100.02 197.81,100.75z"/>
  <path class="fil0 str1" d="M699.8 657.07c-35.41,8.62 -70.82,17.23 -99.84,42.91 -29.03,25.68 -51.68,68.42 -60.29,114.35 -8.61,45.94 -3.19,95.06 11.41,131.13 14.61,36.07 38.39,59.09 62.18,82.1"/>
 </g>
</svg>
