<?xml version="1.0" encoding="UTF-8"?>
<!DOCTYPE svg PUBLIC "-//W3C//DTD SVG 1.1//EN" "http://www.w3.org/Graphics/SVG/1.1/DTD/svg11.dtd">
<!-- Creator: CorelDRAW 2019 (64-Bit) -->
<svg xmlns="http://www.w3.org/2000/svg" xml:space="preserve" width="21.6746mm" height="21.6746mm" version="1.1" style="shape-rendering:geometricPrecision; text-rendering:geometricPrecision; image-rendering:optimizeQuality; fill-rule:evenodd; clip-rule:evenodd"
viewBox="0 0 2167.46 2167.46"
 xmlns:xlink="http://www.w3.org/1999/xlink">
 <defs>
  <style type="text/css">
   <![CDATA[
    .fil0 {fill:black}
   ]]>
  </style>
 </defs>
 <g id="Слой_x0020_1">
  <metadata id="CorelCorpID_0Corel-Layer"/>
  <g>
   <path class="fil0" d="M314.46 239.49l1551.61 0c92.86,0 168.83,75.97 168.83,168.83l0 1052.83c0,92.86 -75.97,168.83 -168.83,168.83l-1551.61 0c-92.86,0 -168.83,-75.97 -168.83,-168.83l0 -1052.83c0,-92.86 75.97,-168.83 168.83,-168.83zm1551.61 84.67l-1551.61 0c-23.06,0 -44.1,9.5 -59.38,24.78 -15.28,15.28 -24.78,36.32 -24.78,59.38l0 1052.83c0,23.06 9.5,44.1 24.78,59.38 15.28,15.28 36.32,24.78 59.38,24.78l1551.61 0c23.06,0 44.1,-9.5 59.38,-24.78 15.28,-15.28 24.78,-36.32 24.78,-59.38l0 -1052.83c0,-23.06 -9.5,-44.1 -24.78,-59.38 -15.28,-15.28 -36.32,-24.78 -59.38,-24.78z"/>
  </g>
  <g>
   <polygon class="fil0" points="807.88,1901.76 1080.04,1420.56 1360.73,1900.42 "/>
   <path id="1" class="fil0" d="M734.46 1860.09l272.16 -481.2c23.01,-40.54 74.55,-54.76 115.09,-31.75 14.54,8.25 25.69,20.17 32.96,33.94l278.82 476.67c23.56,40.18 10.09,91.87 -30.09,115.43 -13.87,8.13 -29.11,11.85 -44.09,11.58l-551.43 1.34c-46.57,0 -84.34,-37.77 -84.34,-84.34 0,-15.14 4,-29.35 10.98,-41.63l-0.06 -0.04zm73.42 41.67l272.16 -481.2 280.69 479.86 -552.85 1.34z"/>
  </g>
 </g>
</svg>
