<?xml version="1.0" encoding="UTF-8"?>
<!DOCTYPE svg PUBLIC "-//W3C//DTD SVG 1.1//EN" "http://www.w3.org/Graphics/SVG/1.1/DTD/svg11.dtd">
<!-- Creator: CorelDRAW 2019 (64-Bit) -->
<svg xmlns="http://www.w3.org/2000/svg" xml:space="preserve" width="21.6746mm" height="21.6746mm" version="1.1" style="shape-rendering:geometricPrecision; text-rendering:geometricPrecision; image-rendering:optimizeQuality; fill-rule:evenodd; clip-rule:evenodd"
viewBox="0 0 2167.46 2167.46"
 xmlns:xlink="http://www.w3.org/1999/xlink">
 <defs>
  <style type="text/css">
   <![CDATA[
    .str0 {stroke:black;stroke-width:84.67;stroke-miterlimit:22.9256}
    .fil0 {fill:none}
    .fil1 {fill:black}
   ]]>
  </style>
 </defs>
 <g id="Слой_x0020_1">
  <metadata id="CorelCorpID_0Corel-Layer"/>
  <path class="fil0 str0" d="M315.61 667.39l1541.57 0c102.5,-3.34 165.25,39.2 160.2,160.2 0,183 0,365.99 0,548.99 2.42,102.94 -47.29,159.63 -160.18,160.16l-1541.1 0c-103.01,3.56 -152.46,-47.24 -150.39,-150.39l0 -561.29c-1.49,-108.45 48.73,-160.74 149.9,-157.67z"/>
  <g>
   <path class="fil1" d="M317.32 999.06c45.85,0 83.02,38.23 83.02,85.42 0,47.18 -37.17,85.41 -83.02,85.41 -45.86,0 -83.02,-38.23 -83.02,-85.41 0,-47.19 37.16,-85.42 83.02,-85.42zm28.45 54.45c-7.27,-7.48 -17.34,-12.12 -28.45,-12.12 -11.11,0 -21.18,4.64 -28.45,12.11 -7.56,7.78 -12.24,18.73 -12.24,30.98 0,12.25 4.68,23.19 12.24,30.97 7.27,7.47 17.34,12.11 28.45,12.11 11.11,0 21.18,-4.64 28.45,-12.11 7.56,-7.78 12.24,-18.72 12.24,-30.97 0,-12.24 -4.68,-23.2 -12.24,-30.97z"/>
  </g>
  <g>
   <path class="fil1" d="M1856.53 999.06c45.85,0 83.02,38.23 83.02,85.42 0,47.18 -37.17,85.41 -83.02,85.41 -45.86,0 -83.02,-38.23 -83.02,-85.41 0,-47.19 37.16,-85.42 83.02,-85.42zm28.45 54.45c-7.27,-7.48 -17.34,-12.12 -28.45,-12.12 -11.11,0 -21.18,4.64 -28.45,12.11 -7.56,7.78 -12.24,18.73 -12.24,30.98 0,12.25 4.68,23.19 12.24,30.97 7.27,7.47 17.34,12.11 28.45,12.11 11.11,0 21.18,-4.64 28.45,-12.11 7.56,-7.78 12.24,-18.72 12.24,-30.97 0,-12.24 -4.68,-23.2 -12.24,-30.97z"/>
  </g>
  <g>
   <path class="fil1" d="M1463.09 935.54c36.68,0 66.41,30.59 66.41,68.34 0,37.75 -29.73,68.34 -66.41,68.34 -36.68,0 -66.41,-30.59 -66.41,-68.34 0,-37.75 29.73,-68.34 66.41,-68.34z"/>
   <path id="1" class="fil1" d="M1463.09 935.54c36.68,0 66.41,30.59 66.41,68.34 0,37.75 -29.73,68.34 -66.41,68.34 -36.68,0 -66.41,-30.59 -66.41,-68.34 0,-37.75 29.73,-68.34 66.41,-68.34zm16.7 49.44c-4.26,-4.38 -10.18,-7.11 -16.7,-7.11 -6.52,0 -12.44,2.73 -16.7,7.11 -4.55,4.69 -7.38,11.37 -7.38,18.9 0,7.53 2.83,14.21 7.38,18.9 4.26,4.38 10.18,7.11 16.7,7.11 6.52,0 12.44,-2.73 16.7,-7.11 4.55,-4.69 7.38,-11.37 7.38,-18.9 0,-7.53 -2.83,-14.21 -7.38,-18.9z"/>
  </g>
  <g>
   <path class="fil1" d="M1221.26 935.54c36.68,0 66.41,30.59 66.41,68.34 0,37.75 -29.73,68.34 -66.41,68.34 -36.68,0 -66.41,-30.59 -66.41,-68.34 0,-37.75 29.73,-68.34 66.41,-68.34z"/>
   <path id="1" class="fil1" d="M1221.26 935.54c36.68,0 66.41,30.59 66.41,68.34 0,37.75 -29.73,68.34 -66.41,68.34 -36.68,0 -66.41,-30.59 -66.41,-68.34 0,-37.75 29.73,-68.34 66.41,-68.34zm16.7 49.44c-4.26,-4.38 -10.18,-7.11 -16.7,-7.11 -6.52,0 -12.44,2.73 -16.7,7.11 -4.55,4.69 -7.38,11.37 -7.38,18.9 0,7.53 2.83,14.21 7.38,18.9 4.26,4.38 10.18,7.11 16.7,7.11 6.52,0 12.44,-2.73 16.7,-7.11 4.55,-4.69 7.38,-11.37 7.38,-18.9 0,-7.53 -2.83,-14.21 -7.38,-18.9z"/>
  </g>
  <g>
   <path class="fil1" d="M971.83 935.54c36.68,0 66.41,30.59 66.41,68.34 0,37.75 -29.73,68.34 -66.41,68.34 -36.68,0 -66.41,-30.59 -66.41,-68.34 0,-37.75 29.73,-68.34 66.41,-68.34z"/>
   <path id="1" class="fil1" d="M971.83 935.54c36.68,0 66.41,30.59 66.41,68.34 0,37.75 -29.73,68.34 -66.41,68.34 -36.68,0 -66.41,-30.59 -66.41,-68.34 0,-37.75 29.73,-68.34 66.41,-68.34zm16.7 49.44c-4.26,-4.38 -10.18,-7.11 -16.7,-7.11 -6.52,0 -12.44,2.73 -16.7,7.11 -4.55,4.69 -7.38,11.37 -7.38,18.9 0,7.53 2.83,14.21 7.38,18.9 4.26,4.38 10.18,7.11 16.7,7.11 6.52,0 12.44,-2.73 16.7,-7.11 4.55,-4.69 7.38,-11.37 7.38,-18.9 0,-7.53 -2.83,-14.21 -7.38,-18.9z"/>
  </g>
  <g>
   <path class="fil1" d="M726.38 935.54c36.68,0 66.41,30.59 66.41,68.34 0,37.75 -29.73,68.34 -66.41,68.34 -36.68,0 -66.41,-30.59 -66.41,-68.34 0,-37.75 29.73,-68.34 66.41,-68.34z"/>
   <path id="1" class="fil1" d="M726.38 935.54c36.68,0 66.41,30.59 66.41,68.34 0,37.75 -29.73,68.34 -66.41,68.34 -36.68,0 -66.41,-30.59 -66.41,-68.34 0,-37.75 29.73,-68.34 66.41,-68.34zm16.7 49.44c-4.26,-4.38 -10.18,-7.11 -16.7,-7.11 -6.52,0 -12.44,2.73 -16.7,7.11 -4.55,4.69 -7.38,11.37 -7.38,18.9 0,7.53 2.83,14.21 7.38,18.9 4.26,4.38 10.18,7.11 16.7,7.11 6.52,0 12.44,-2.73 16.7,-7.11 4.55,-4.69 7.38,-11.37 7.38,-18.9 0,-7.53 -2.83,-14.21 -7.38,-18.9z"/>
  </g>
  <g>
   <path class="fil1" d="M849.07 1122.18c36.68,0 66.41,30.59 66.41,68.34 0,37.75 -29.73,68.34 -66.41,68.34 -36.68,0 -66.41,-30.59 -66.41,-68.34 0,-37.75 29.73,-68.34 66.41,-68.34z"/>
   <path id="1" class="fil1" d="M849.07 1122.18c36.68,0 66.41,30.59 66.41,68.34 0,37.75 -29.73,68.34 -66.41,68.34 -36.68,0 -66.41,-30.59 -66.41,-68.34 0,-37.75 29.73,-68.34 66.41,-68.34zm16.7 49.44c-4.26,-4.38 -10.18,-7.11 -16.7,-7.11 -6.52,0 -12.44,2.73 -16.7,7.11 -4.55,4.69 -7.38,11.37 -7.38,18.9 0,7.53 2.83,14.21 7.38,18.9 4.26,4.38 10.18,7.11 16.7,7.11 6.52,0 12.44,-2.73 16.7,-7.11 4.55,-4.69 7.38,-11.37 7.38,-18.9 0,-7.53 -2.83,-14.21 -7.38,-18.9z"/>
  </g>
  <g>
   <path class="fil1" d="M1092.19 1122.18c36.68,0 66.41,30.59 66.41,68.34 0,37.75 -29.73,68.34 -66.41,68.34 -36.68,0 -66.41,-30.59 -66.41,-68.34 0,-37.75 29.73,-68.34 66.41,-68.34z"/>
   <path id="1" class="fil1" d="M1092.19 1122.18c36.68,0 66.41,30.59 66.41,68.34 0,37.75 -29.73,68.34 -66.41,68.34 -36.68,0 -66.41,-30.59 -66.41,-68.34 0,-37.75 29.73,-68.34 66.41,-68.34zm16.7 49.44c-4.26,-4.38 -10.18,-7.11 -16.7,-7.11 -6.52,0 -12.44,2.73 -16.7,7.11 -4.55,4.69 -7.38,11.37 -7.38,18.9 0,7.53 2.83,14.21 7.38,18.9 4.26,4.38 10.18,7.11 16.7,7.11 6.52,0 12.44,-2.73 16.7,-7.11 4.55,-4.69 7.38,-11.37 7.38,-18.9 0,-7.53 -2.83,-14.21 -7.38,-18.9z"/>
  </g>
  <g>
   <path class="fil1" d="M1340.04 1122.18c36.68,0 66.41,30.59 66.41,68.34 0,37.75 -29.73,68.34 -66.41,68.34 -36.68,0 -66.41,-30.59 -66.41,-68.34 0,-37.75 29.73,-68.34 66.41,-68.34z"/>
   <path id="1" class="fil1" d="M1340.04 1122.18c36.68,0 66.41,30.59 66.41,68.34 0,37.75 -29.73,68.34 -66.41,68.34 -36.68,0 -66.41,-30.59 -66.41,-68.34 0,-37.75 29.73,-68.34 66.41,-68.34zm16.7 49.44c-4.26,-4.38 -10.18,-7.11 -16.7,-7.11 -6.52,0 -12.44,2.73 -16.7,7.11 -4.55,4.69 -7.38,11.37 -7.38,18.9 0,7.53 2.83,14.21 7.38,18.9 4.26,4.38 10.18,7.11 16.7,7.11 6.52,0 12.44,-2.73 16.7,-7.11 4.55,-4.69 7.38,-11.37 7.38,-18.9 0,-7.53 -2.83,-14.21 -7.38,-18.9z"/>
  </g>
  <path class="fil0 str0" d="M535.23 903.64l112.81 410.9c13.7,41.25 40.54,63.21 83.11,61.95l738.74 0c39.29,1.04 67.25,-16.22 79.24,-59.28l110.55 -425.63c17.96,-53.75 -6.85,-72.29 -56.24,-70.7l-1016.66 3.14c-50.24,-0.38 -70.69,23.5 -51.55,79.62z"/>
 </g>
</svg>
