<?xml version="1.0" encoding="UTF-8"?>
<!DOCTYPE svg PUBLIC "-//W3C//DTD SVG 1.1//EN" "http://www.w3.org/Graphics/SVG/1.1/DTD/svg11.dtd">
<!-- Creator: CorelDRAW 2019 (64-Bit) -->
<svg xmlns="http://www.w3.org/2000/svg" xml:space="preserve" width="21.6746mm" height="21.6746mm" version="1.1" style="shape-rendering:geometricPrecision; text-rendering:geometricPrecision; image-rendering:optimizeQuality; fill-rule:evenodd; clip-rule:evenodd"
viewBox="0 0 2167.46 2167.46"
 xmlns:xlink="http://www.w3.org/1999/xlink">
 <defs>
  <style type="text/css">
   <![CDATA[
    .str1 {stroke:black;stroke-width:84.67;stroke-miterlimit:22.9256}
    .str2 {stroke:black;stroke-width:7.62;stroke-miterlimit:22.9256}
    .str0 {stroke:black;stroke-width:84.67;stroke-linecap:round;stroke-linejoin:round;stroke-miterlimit:38.2016}
    .fil0 {fill:none}
    .fil1 {fill:black}
   ]]>
  </style>
 </defs>
 <g id="Слой_x0020_1">
  <metadata id="CorelCorpID_0Corel-Layer"/>
  <path class="fil0 str0" d="M1019.87 1806.43l-511.6 2.56c-96.67,-0.65 -132.17,-74.52 -131.52,-129.85l0 -1315.94c-0.18,-77.27 54.19,-137.8 133.11,-138.4l647.85 0c158.64,3.59 209.99,31.16 283.52,111.64l301.01 301.01c40.41,39.43 70.62,91.37 71.18,158.6l0 227.35"/>
  <rect class="fil1 str1" x="847.71" y="421.29" width="138.13" height="231.95" rx="26.69" ry="26.69"/>
  <rect class="fil1 str1" x="558.52" y="421.29" width="138.13" height="231.95" rx="26.69" ry="26.69"/>
  <path class="fil1 str2" d="M1741.89 2026.64c80.38,0 145.53,-65.16 145.53,-145.54 0,-80.37 -65.15,-145.53 -145.53,-145.53 -80.38,0 -145.54,65.16 -145.54,145.53 0,80.38 65.16,145.54 145.54,145.54zm-511.52 -273.95c80.38,0 145.54,-65.16 145.54,-145.54 0,-80.37 -65.16,-145.53 -145.54,-145.53 -80.37,0 -145.53,65.16 -145.53,145.53 0,80.38 65.16,145.54 145.53,145.54zm511.52 -279.08c80.38,0 145.53,-65.16 145.53,-145.54 0,-80.38 -65.15,-145.53 -145.53,-145.53 -80.38,0 -145.54,65.15 -145.54,145.53 0,80.38 65.16,145.54 145.54,145.54z"/>
  <polyline class="fil0 str1" points="1741.89,1339.63 1230.37,1630.88 1741.89,1881.1 "/>
 </g>
</svg>
