<?xml version="1.0" encoding="UTF-8"?>
<!DOCTYPE svg PUBLIC "-//W3C//DTD SVG 1.1//EN" "http://www.w3.org/Graphics/SVG/1.1/DTD/svg11.dtd">
<!-- Creator: CorelDRAW 2019 (64-Bit) -->
<svg xmlns="http://www.w3.org/2000/svg" xml:space="preserve" width="21.6746mm" height="21.6746mm" version="1.1" style="shape-rendering:geometricPrecision; text-rendering:geometricPrecision; image-rendering:optimizeQuality; fill-rule:evenodd; clip-rule:evenodd"
viewBox="0 0 2167.46 2167.46"
 xmlns:xlink="http://www.w3.org/1999/xlink">
 <defs>
  <style type="text/css">
   <![CDATA[
    .str0 {stroke:black;stroke-width:84.67;stroke-miterlimit:22.9256}
    .str1 {stroke:black;stroke-width:42.33;stroke-miterlimit:22.9256}
    .str2 {stroke:black;stroke-width:7.62;stroke-miterlimit:22.9256}
    .fil0 {fill:none}
    .fil1 {fill:black}
   ]]>
  </style>
 </defs>
 <g id="Слой_x0020_1">
  <metadata id="CorelCorpID_0Corel-Layer"/>
  <rect class="fil0 str0" x="121.49" y="720.73" width="1929.94" height="716.07" rx="200.5" ry="163.16"/>
  <path class="fil1 str1" d="M387.61 1039.11l40.55 -40.56c7.87,-7.34 23.19,-13.69 34.08,-13.46l91.38 0c11.06,-0.07 23.86,4.53 31.95,11.86l43.35 43.36c7.36,7.37 12.26,20.74 12.27,31.02l0 93.24c-0.13,6.21 -12.38,18.54 -19.97,18.64l-227.04 0c-8.22,-0.1 -19.17,-10.74 -19.24,-17.24l0 -94.64c0.14,-10.22 5.53,-24.63 12.67,-32.22z"/>
  <circle class="fil1 str2" cx="1862.52" cy="912.23" r="57.81"/>
  <path class="fil1 str1" d="M769.57 1039.11l40.56 -40.56c7.86,-7.34 23.19,-13.69 34.08,-13.46l91.37 0c11.07,-0.07 23.87,4.53 31.96,11.86l43.35 43.36c7.36,7.37 12.26,20.74 12.27,31.02l0 93.24c-0.13,6.21 -12.39,18.54 -19.97,18.64l-227.04 0c-8.22,-0.1 -19.18,-10.74 -19.24,-17.24l0 -94.64c0.14,-10.22 5.53,-24.63 12.66,-32.22z"/>
  <path class="fil1 str1" d="M1163.48 1039.11l40.56 -40.56c7.86,-7.34 23.19,-13.69 34.08,-13.46l91.38 0c11.06,-0.07 23.86,4.53 31.95,11.86l43.35 43.36c7.36,7.37 12.26,20.74 12.27,31.02l0 93.24c-0.13,6.21 -12.38,18.54 -19.97,18.64l-227.04 0c-8.22,-0.1 -19.18,-10.74 -19.24,-17.24l0 -94.64c0.14,-10.22 5.53,-24.63 12.66,-32.22z"/>
  <path class="fil1 str1" d="M1545.41 1039.11l40.55 -40.56c7.87,-7.34 23.19,-13.69 34.08,-13.46l91.38 0c11.06,-0.07 23.86,4.53 31.95,11.86l43.35 43.36c7.36,7.37 12.26,20.74 12.27,31.02l0 93.24c-0.13,6.21 -12.38,18.54 -19.97,18.64l-227.04 0c-8.22,-0.1 -19.17,-10.74 -19.24,-17.24l0 -94.64c0.14,-10.22 5.53,-24.63 12.67,-32.22z"/>
 </g>
</svg>
